# xmcd
#
# Track frame offsets: 
#        150
#        20896
#        36515
#        56641
#        74400
#        92066
#        109499
#        125271
#        143788
#        160172
#        179228
#        194526
#        210520
#        225829
#        244854
#        262199
#        280056
#
# Disc length: 3965 seconds
#
# Revision: 2
# Processed by: cddbd v1.5.2PL0 Copyright (c) Steve Scherf et al.
# Submitted via: ExactAudioCopyFreeDBPlugin 1.0
#
DISCID=080f7b11
DTITLE=Yanni - Voices
DYEAR=2009
DGENRE=New Age
TTITLE0=Omaggio (Tribute)
TTITLE1=The Keeper
TTITLE2=Our Days
TTITLE3=Never Leave the Sun
TTITLE4=Before the Night Ends
TTITLE5=1001
TTITLE6=Mas Alla
TTITLE7=Unico Amore (Enchantment )
TTITLE8=Vivi Il Tuo Sogno (Almost a Whisper)
TTITLE9=Orchid
TTITLE10=Set Me Free
TTITLE11=Kill Me With Your Love
TTITLE12=Mi Todo Eres Tu (Until the Last Moment)
TTITLE13=Ritual De Amor (Desire)
TTITLE14=Moments Without Time
TTITLE15=Nei Tuoi Occhi (In the Miror)
TTITLE16=Amare Di Nuovo (Adagio in C Minor)
EXTD=YEAR: 2009
EXTT0=
EXTT1=
EXTT2=
EXTT3=
EXTT4=
EXTT5=
EXTT6=
EXTT7=
EXTT8=
EXTT9=
EXTT10=
EXTT11=
EXTT12=
EXTT13=
EXTT14=
EXTT15=
EXTT16=
PLAYORDER=
